<mxfile host="app.diagrams.net" modified="2023-11-08T08:40:02.434Z" agent="Mozilla/5.0 (Windows NT 10.0; Win64; x64) AppleWebKit/537.36 (KHTML, like Gecko) Chrome/119.0.0.0 Safari/537.36" etag="y0zNrUW3Qm9QtSNetZ18" version="22.0.8" type="github">
  <diagram name="第 1 页" id="3QN_L99QRxnpCt4TK57H">
    <mxGraphModel dx="830" dy="442" grid="1" gridSize="10" guides="1" tooltips="1" connect="1" arrows="1" fold="1" page="1" pageScale="1" pageWidth="827" pageHeight="1169" math="0" shadow="0">
      <root>
        <mxCell id="0" />
        <mxCell id="1" parent="0" />
        <mxCell id="ks44Y-bHQrXXDw-JOLaS-1" value="&lt;font style=&quot;font-size: 14px;&quot;&gt;vbpconfsvr&lt;/font&gt;" style="rounded=1;whiteSpace=wrap;html=1;strokeWidth=3;fillColor=#dae8fc;strokeColor=#6c8ebf;" vertex="1" parent="1">
          <mxGeometry x="310" y="360" width="230" height="40" as="geometry" />
        </mxCell>
        <mxCell id="ks44Y-bHQrXXDw-JOLaS-5" value="&lt;b&gt;&lt;i&gt;&lt;font color=&quot;#121111&quot;&gt;DB&lt;/font&gt;&lt;/i&gt;&lt;/b&gt;" style="shape=cylinder3;whiteSpace=wrap;html=1;boundedLbl=1;backgroundOutline=1;size=15;fillColor=#f8cecc;strokeColor=#b85450;strokeWidth=2;fontFamily=Comic Sans MS;" vertex="1" parent="1">
          <mxGeometry x="663" y="340" width="60" height="80" as="geometry" />
        </mxCell>
        <mxCell id="ks44Y-bHQrXXDw-JOLaS-6" value="&lt;b style=&quot;font-size: 11px;&quot;&gt;&lt;font style=&quot;font-size: 11px;&quot;&gt;&lt;font style=&quot;font-size: 11px;&quot;&gt;File &amp;lt;&lt;/font&gt;-&amp;gt; module&lt;/font&gt;&lt;/b&gt;" style="rounded=0;whiteSpace=wrap;html=1;fontFamily=Comic Sans MS;fillColor=#f8cecc;strokeColor=#b85450;strokeWidth=2;" vertex="1" parent="1">
          <mxGeometry x="638" y="310" width="110" height="20" as="geometry" />
        </mxCell>
        <mxCell id="ks44Y-bHQrXXDw-JOLaS-7" value="&lt;font style=&quot;font-size: 14px;&quot;&gt;vbphub&lt;/font&gt;" style="rounded=1;whiteSpace=wrap;html=1;strokeWidth=3;fillColor=#ffe6cc;strokeColor=#d79b00;" vertex="1" parent="1">
          <mxGeometry x="230" y="480" width="390" height="50" as="geometry" />
        </mxCell>
        <mxCell id="ks44Y-bHQrXXDw-JOLaS-8" value="&lt;font style=&quot;font-size: 14px;&quot;&gt;vbpagent&lt;/font&gt;" style="rounded=1;whiteSpace=wrap;html=1;strokeWidth=3;fillColor=#d5e8d4;strokeColor=#82b366;" vertex="1" parent="1">
          <mxGeometry x="310" y="600" width="230" height="40" as="geometry" />
        </mxCell>
        <mxCell id="ks44Y-bHQrXXDw-JOLaS-21" value="&lt;font style=&quot;font-size: 9px;&quot;&gt;etc文件cache&lt;/font&gt;" style="rounded=0;whiteSpace=wrap;html=1;fillColor=#f8cecc;strokeColor=#b85450;strokeWidth=2;" vertex="1" parent="1">
          <mxGeometry x="460" y="495" width="60" height="20" as="geometry" />
        </mxCell>
        <mxCell id="ks44Y-bHQrXXDw-JOLaS-23" value="&lt;font style=&quot;font-size: 9px;&quot;&gt;跨模块文件表&lt;/font&gt;" style="rounded=0;whiteSpace=wrap;html=1;fillColor=#f8cecc;strokeColor=#b85450;strokeWidth=2;" vertex="1" parent="1">
          <mxGeometry x="534.5" y="495" width="71" height="20" as="geometry" />
        </mxCell>
        <mxCell id="ks44Y-bHQrXXDw-JOLaS-24" value="&lt;font style=&quot;font-size: 9px;&quot;&gt;client文件cache&lt;/font&gt;" style="rounded=0;whiteSpace=wrap;html=1;fillColor=#f5f5f5;strokeColor=#666666;fontColor=#333333;strokeWidth=2;" vertex="1" parent="1">
          <mxGeometry x="280" y="495" width="70" height="20" as="geometry" />
        </mxCell>
        <mxCell id="ks44Y-bHQrXXDw-JOLaS-25" value="" style="edgeStyle=elbowEdgeStyle;elbow=horizontal;endArrow=openThin;html=1;curved=0;rounded=0;endSize=8;startSize=8;exitX=1;exitY=0.5;exitDx=0;exitDy=0;entryX=0;entryY=0.5;entryDx=0;entryDy=0;entryPerimeter=0;startArrow=openThin;startFill=0;endFill=0;" edge="1" parent="1" source="ks44Y-bHQrXXDw-JOLaS-1" target="ks44Y-bHQrXXDw-JOLaS-5">
          <mxGeometry width="50" height="50" relative="1" as="geometry">
            <mxPoint x="430" y="520" as="sourcePoint" />
            <mxPoint x="480" y="470" as="targetPoint" />
          </mxGeometry>
        </mxCell>
        <mxCell id="ks44Y-bHQrXXDw-JOLaS-26" value="" style="endArrow=openThin;html=1;rounded=0;entryX=0.934;entryY=1.033;entryDx=0;entryDy=0;entryPerimeter=0;exitX=0.5;exitY=0;exitDx=0;exitDy=0;startArrow=openThin;startFill=0;endFill=0;" edge="1" parent="1" source="ks44Y-bHQrXXDw-JOLaS-23" target="ks44Y-bHQrXXDw-JOLaS-1">
          <mxGeometry width="50" height="50" relative="1" as="geometry">
            <mxPoint x="430" y="520" as="sourcePoint" />
            <mxPoint x="480" y="470" as="targetPoint" />
          </mxGeometry>
        </mxCell>
        <mxCell id="ks44Y-bHQrXXDw-JOLaS-27" value="&lt;font style=&quot;font-size: 10px;&quot;&gt;定时同步&lt;/font&gt;" style="text;html=1;align=center;verticalAlign=middle;resizable=0;points=[];autosize=1;strokeColor=none;fillColor=none;" vertex="1" parent="1">
          <mxGeometry x="540" y="430" width="60" height="30" as="geometry" />
        </mxCell>
        <mxCell id="ks44Y-bHQrXXDw-JOLaS-30" value="etc文件&lt;br style=&quot;font-size: 10px;&quot;&gt;主动更新&amp;amp;定时同步&lt;br&gt;（&lt;font color=&quot;#ff0000&quot;&gt;主干版本带IPList&lt;/font&gt;）" style="text;html=1;align=center;verticalAlign=middle;resizable=0;points=[];autosize=1;strokeColor=none;fillColor=none;fontSize=10;" vertex="1" parent="1">
          <mxGeometry x="365" y="420" width="120" height="50" as="geometry" />
        </mxCell>
        <mxCell id="ks44Y-bHQrXXDw-JOLaS-31" value="client文件&lt;br style=&quot;font-size: 10px;&quot;&gt;主动更新&amp;amp;定时同步&lt;br&gt;（&lt;font color=&quot;#ff0000&quot;&gt;主干版本默认全部机器&lt;/font&gt;)" style="text;html=1;align=center;verticalAlign=middle;resizable=0;points=[];autosize=1;strokeColor=none;fillColor=none;fontSize=10;" vertex="1" parent="1">
          <mxGeometry x="200" y="420" width="140" height="50" as="geometry" />
        </mxCell>
        <mxCell id="ks44Y-bHQrXXDw-JOLaS-32" value="etc文件" style="rounded=0;whiteSpace=wrap;html=1;fillColor=#f8cecc;strokeColor=#b85450;strokeWidth=2;" vertex="1" parent="1">
          <mxGeometry x="471" y="607.5" width="57" height="25" as="geometry" />
        </mxCell>
        <mxCell id="ks44Y-bHQrXXDw-JOLaS-33" value="client文件" style="rounded=0;whiteSpace=wrap;html=1;strokeWidth=2;fillColor=#f5f5f5;strokeColor=#666666;fontColor=#333333;" vertex="1" parent="1">
          <mxGeometry x="327" y="607.5" width="63" height="25" as="geometry" />
        </mxCell>
        <mxCell id="ks44Y-bHQrXXDw-JOLaS-34" value="" style="endArrow=openThin;html=1;rounded=0;entryX=0.5;entryY=1;entryDx=0;entryDy=0;exitX=0.5;exitY=0;exitDx=0;exitDy=0;startArrow=none;startFill=0;endFill=0;" edge="1" parent="1" source="ks44Y-bHQrXXDw-JOLaS-33" target="ks44Y-bHQrXXDw-JOLaS-24">
          <mxGeometry width="50" height="50" relative="1" as="geometry">
            <mxPoint x="364" y="415" as="sourcePoint" />
            <mxPoint x="330" y="500" as="targetPoint" />
          </mxGeometry>
        </mxCell>
        <mxCell id="ks44Y-bHQrXXDw-JOLaS-37" value="" style="endArrow=openThin;startArrow=openThin;html=1;rounded=0;entryX=0.622;entryY=1.047;entryDx=0;entryDy=0;entryPerimeter=0;exitX=0.5;exitY=0;exitDx=0;exitDy=0;startFill=0;endFill=0;" edge="1" parent="1" source="ks44Y-bHQrXXDw-JOLaS-21" target="ks44Y-bHQrXXDw-JOLaS-1">
          <mxGeometry width="50" height="50" relative="1" as="geometry">
            <mxPoint x="440" y="480" as="sourcePoint" />
            <mxPoint x="490" y="430" as="targetPoint" />
          </mxGeometry>
        </mxCell>
        <mxCell id="ks44Y-bHQrXXDw-JOLaS-38" value="" style="endArrow=openThin;startArrow=openThin;html=1;rounded=0;entryX=0.194;entryY=1.087;entryDx=0;entryDy=0;entryPerimeter=0;exitX=0.5;exitY=0;exitDx=0;exitDy=0;startFill=0;endFill=0;" edge="1" parent="1" source="ks44Y-bHQrXXDw-JOLaS-24" target="ks44Y-bHQrXXDw-JOLaS-1">
          <mxGeometry width="50" height="50" relative="1" as="geometry">
            <mxPoint x="500" y="500" as="sourcePoint" />
            <mxPoint x="463" y="412" as="targetPoint" />
          </mxGeometry>
        </mxCell>
        <mxCell id="ks44Y-bHQrXXDw-JOLaS-42" value="" style="endArrow=openThin;html=1;rounded=0;exitX=0.5;exitY=0;exitDx=0;exitDy=0;entryX=0.5;entryY=1;entryDx=0;entryDy=0;startArrow=none;startFill=0;endFill=0;" edge="1" parent="1" source="ks44Y-bHQrXXDw-JOLaS-32" target="ks44Y-bHQrXXDw-JOLaS-21">
          <mxGeometry width="50" height="50" relative="1" as="geometry">
            <mxPoint x="440" y="480" as="sourcePoint" />
            <mxPoint x="490" y="520" as="targetPoint" />
          </mxGeometry>
        </mxCell>
        <mxCell id="ks44Y-bHQrXXDw-JOLaS-43" value="&lt;font style=&quot;font-size: 10px;&quot;&gt;1. 判断需要检查的文件&lt;br&gt;&lt;/font&gt;" style="text;html=1;align=center;verticalAlign=middle;resizable=0;points=[];autosize=1;strokeColor=none;fillColor=none;fontColor=#FF3333;fontStyle=1" vertex="1" parent="1">
          <mxGeometry x="520" y="555" width="120" height="30" as="geometry" />
        </mxCell>
        <mxCell id="ks44Y-bHQrXXDw-JOLaS-44" value="" style="endArrow=openThin;html=1;rounded=0;exitX=0.5;exitY=0;exitDx=0;exitDy=0;entryX=0.5;entryY=1;entryDx=0;entryDy=0;startArrow=none;startFill=0;endFill=0;" edge="1" parent="1" source="ks44Y-bHQrXXDw-JOLaS-32" target="ks44Y-bHQrXXDw-JOLaS-23">
          <mxGeometry width="50" height="50" relative="1" as="geometry">
            <mxPoint x="440" y="480" as="sourcePoint" />
            <mxPoint x="490" y="430" as="targetPoint" />
          </mxGeometry>
        </mxCell>
        <mxCell id="ks44Y-bHQrXXDw-JOLaS-45" value="&lt;font style=&quot;font-size: 10px;&quot;&gt;2. 对比更新&lt;br&gt;&lt;/font&gt;" style="text;html=1;align=center;verticalAlign=middle;resizable=0;points=[];autosize=1;strokeColor=none;fillColor=none;fontColor=#FF3333;fontStyle=1" vertex="1" parent="1">
          <mxGeometry x="420" y="555" width="70" height="30" as="geometry" />
        </mxCell>
      </root>
    </mxGraphModel>
  </diagram>
</mxfile>
